<svg width="14" height="13" viewBox="0 0 14 13" fill="none" xmlns="http://www.w3.org/2000/svg">
<g clip-path="url(#clip0_1_695)">
<path fill-rule="evenodd" clip-rule="evenodd" d="M1.70253 6.42309C2.03389 5.92458 2.69983 5.0175 3.60263 4.24107C4.51095 3.45989 5.59655 2.86388 6.77927 2.86388C7.96199 2.86388 9.04764 3.45989 9.9559 4.24107C10.8587 5.0175 11.5247 5.92458 11.856 6.42309C11.8792 6.4579 11.8792 6.49806 11.856 6.53288C11.5247 7.03139 10.8587 7.93847 9.9559 8.71487C9.04764 9.49608 7.96199 10.0921 6.77927 10.0921C5.59655 10.0921 4.51095 9.49608 3.60263 8.71487C2.69983 7.93847 2.03389 7.03139 1.70253 6.53288C1.67938 6.49806 1.67938 6.4579 1.70253 6.42309ZM6.77927 1.65918C5.18798 1.65918 3.83111 2.45562 2.8171 3.3277C1.79757 4.20452 1.06132 5.2115 0.699249 5.7562C0.407541 6.19505 0.407543 6.76092 0.699249 7.19977C1.06132 7.74447 1.79757 8.75141 2.8171 9.62827C3.83111 10.5003 5.18798 11.2968 6.77927 11.2968C8.37057 11.2968 9.72741 10.5003 10.7414 9.62827C11.7609 8.75141 12.4973 7.74447 12.8593 7.19977C13.151 6.76092 13.151 6.19505 12.8593 5.7562C12.4973 5.2115 11.7609 4.20452 10.7414 3.3277C9.72741 2.45562 8.37057 1.65918 6.77927 1.65918ZM6.77927 8.08425C7.66638 8.08425 8.38553 7.3651 8.38553 6.47798C8.38553 5.59086 7.66638 4.87171 6.77927 4.87171C5.89215 4.87171 5.173 5.59086 5.173 6.47798C5.173 7.3651 5.89215 8.08425 6.77927 8.08425Z" fill="#24292E"/>
</g>
<defs>
<clipPath id="clip0_1_695">
<rect width="12.8501" height="12.8501" fill="white" transform="translate(0.354248 0.0529785)"/>
</clipPath>
</defs>
</svg>
