<svg width="14" height="14" viewBox="0 0 14 14" fill="none" xmlns="http://www.w3.org/2000/svg">
<path fill-rule="evenodd" clip-rule="evenodd" d="M4.90534 10.6266C5.3489 10.6266 5.70847 10.9862 5.70847 11.4298C5.70847 11.8733 5.3489 12.2329 4.90534 12.2329C4.46178 12.2329 4.10221 11.8733 4.10221 11.4298C4.10221 10.9862 4.46178 10.6266 4.90534 10.6266ZM9.72414 10.6266C10.1677 10.6266 10.5273 10.9862 10.5273 11.4298C10.5273 11.8733 10.1677 12.2329 9.72414 12.2329C9.28058 12.2329 8.92101 11.8733 8.92101 11.4298C8.92101 10.9862 9.28058 10.6266 9.72414 10.6266ZM1.96047 1.52441H3.03132C3.27526 1.52441 3.48552 1.6887 3.54803 1.91942L3.56051 1.97842L3.82016 3.6661H11.5981C11.9192 3.6661 12.1629 3.94489 12.1309 4.25525L12.1207 4.31768L11.2362 8.29793C11.08 9.00091 10.4768 9.50988 9.76583 9.55281L9.66823 9.55575H5.02086C4.25976 9.55575 3.60795 9.02267 3.45037 8.28675L3.43327 8.19373L2.57197 2.59526H1.96047C1.66477 2.59526 1.42505 2.35554 1.42505 2.05984C1.42505 1.78525 1.63174 1.55894 1.89803 1.52802L1.96047 1.52441H3.03132H1.96047ZM10.9307 4.73699H3.98495L4.49171 8.03094C4.52881 8.27205 4.72316 8.45488 4.96069 8.48159L5.02091 8.48495H9.66828C9.89832 8.48495 10.1001 8.33849 10.174 8.12539L10.191 8.06568L10.9307 4.73699Z" fill="white"/>
</svg>
