<svg width="14" height="14" viewBox="0 0 14 14" fill="none" xmlns="http://www.w3.org/2000/svg">
<path fill-rule="evenodd" clip-rule="evenodd" d="M10.9288 9.72257C10.4114 9.72257 9.99185 10.1421 9.99185 10.6596C9.99185 11.177 10.4114 11.5965 10.9288 11.5965C11.4463 11.5965 11.8658 11.177 11.8658 10.6596C11.8658 10.1421 11.4463 9.72257 10.9288 9.72257ZM9.18872 10.6596C9.18872 9.69851 9.9678 8.91943 10.9288 8.91943C11.8899 8.91943 12.669 9.69851 12.669 10.6596C12.669 11.6206 11.8899 12.3997 10.9288 12.3997C9.9678 12.3997 9.18872 11.6206 9.18872 10.6596Z" fill="#24292E"/>
<path fill-rule="evenodd" clip-rule="evenodd" d="M7.79946 1.27362C7.95629 1.43044 7.95629 1.6847 7.79946 1.84152L7.14643 2.49456H9.32257C10.4315 2.49456 11.3304 3.3935 11.3304 4.5024V9.18734C11.3304 9.40912 11.1506 9.58891 10.9288 9.58891C10.7071 9.58891 10.5273 9.40912 10.5273 9.18734V4.5024C10.5273 3.83706 9.9879 3.2977 9.32257 3.2977H7.14643L7.79946 3.95073C7.95629 4.10756 7.95629 4.36181 7.79946 4.51864C7.64264 4.67546 7.38838 4.67546 7.23156 4.51864L5.89301 3.18008C5.73619 3.02326 5.73619 2.769 5.89301 2.61218L7.23156 1.27362C7.38838 1.1168 7.64264 1.1168 7.79946 1.27362Z" fill="#24292E"/>
<path fill-rule="evenodd" clip-rule="evenodd" d="M2.62975 3.8331C3.14723 3.8331 3.56674 3.41359 3.56674 2.89611C3.56674 2.37862 3.14723 1.95912 2.62975 1.95912C2.11226 1.95912 1.69276 2.37862 1.69276 2.89611C1.69276 3.41359 2.11226 3.8331 2.62975 3.8331ZM4.36987 2.89611C4.36987 3.85715 3.59079 4.63623 2.62975 4.63623C1.66871 4.63623 0.889627 3.85715 0.889627 2.89611C0.889627 1.93506 1.66871 1.15598 2.62975 1.15598C3.59079 1.15598 4.36987 1.93506 4.36987 2.89611Z" fill="#24292E"/>
<path fill-rule="evenodd" clip-rule="evenodd" d="M5.75913 12.2823C5.60231 12.1255 5.60231 11.8712 5.75913 11.7144L6.41217 11.0613H4.23603C3.12713 11.0613 2.22819 10.1624 2.22819 9.05351L2.22819 4.36856C2.22819 4.14678 2.40798 3.967 2.62976 3.967C2.85154 3.967 3.03133 4.14678 3.03133 4.36856L3.03133 9.05351C3.03133 9.71885 3.57069 10.2582 4.23603 10.2582H6.41217L5.75913 9.60517C5.60231 9.44835 5.60231 9.19409 5.75913 9.03727C5.91595 8.88045 6.17021 8.88045 6.32703 9.03727L7.66559 10.3758C7.82241 10.5326 7.82241 10.7869 7.66559 10.9437L6.32703 12.2823C6.17021 12.4391 5.91595 12.4391 5.75913 12.2823Z" fill="#24292E"/>
</svg>
