<svg width="20" height="18" viewBox="0 0 20 18" fill="none" xmlns="http://www.w3.org/2000/svg">
<path d="M16.2357 11.7799H7.98902C7.43147 11.7796 6.89121 11.594 6.46002 11.2545C6.02882 10.915 5.7333 10.4426 5.62365 9.9176L3.99846 2.12085H1.43999C1.22661 2.12085 1.02197 2.03944 0.871084 1.89453C0.720202 1.74962 0.635437 1.55307 0.635437 1.34813C0.635437 1.1432 0.720202 0.946651 0.871084 0.801738C1.02197 0.656825 1.22661 0.575414 1.43999 0.575414H4.65819C4.84641 0.571768 5.03 0.631631 5.17701 0.744584C5.32401 0.857536 5.42512 1.01642 5.46274 1.19359L7.20056 9.61624C7.23818 9.79341 7.33929 9.95229 7.48629 10.0652C7.6333 10.1782 7.81689 10.2381 8.00511 10.2344H16.2357C16.4228 10.2384 16.6055 10.1796 16.7523 10.0682C16.8991 9.95681 17.001 9.7997 17.0402 9.62397L18.3355 3.82857C18.3611 3.71445 18.3594 3.59626 18.3306 3.48286C18.3018 3.36947 18.2466 3.26382 18.1691 3.17384C18.0917 3.08387 17.9941 3.01191 17.8836 2.96337C17.773 2.91483 17.6525 2.89096 17.531 2.89357H16.7264C16.5131 2.89357 16.3084 2.81216 16.1575 2.66725C16.0066 2.52234 15.9219 2.32579 15.9219 2.12085C15.9219 1.91592 16.0066 1.71937 16.1575 1.57446C16.3084 1.42955 16.5131 1.34813 16.7264 1.34813H17.531C17.8963 1.34003 18.2588 1.41172 18.5911 1.55778C18.9234 1.70384 19.2168 1.92047 19.4493 2.19132C19.6817 2.46217 19.847 2.78017 19.9329 3.12134C20.0187 3.46252 20.0227 3.81795 19.9446 4.16084L18.6332 9.95623C18.5144 10.4794 18.2106 10.9469 17.7735 11.2793C17.3365 11.6117 16.7931 11.7886 16.2357 11.7799ZM8.68094 17.5753C8.20356 17.5753 7.73691 17.4393 7.33998 17.1846C6.94306 16.9299 6.6337 16.5678 6.45101 16.1442C6.26833 15.7206 6.22053 15.2545 6.31366 14.8048C6.4068 14.3552 6.63667 13.9421 6.97423 13.6179C7.31178 13.2937 7.74185 13.0729 8.21006 12.9835C8.67826 12.894 9.16356 12.9399 9.6046 13.1154C10.0456 13.2909 10.4226 13.588 10.6878 13.9692C10.953 14.3504 11.0946 14.7986 11.0946 15.2571C11.0946 15.8719 10.8403 16.4615 10.3876 16.8963C9.935 17.331 9.32108 17.5753 8.68094 17.5753ZM8.68094 14.4844C8.52181 14.4844 8.36626 14.5297 8.23395 14.6146C8.10164 14.6995 7.99852 14.8202 7.93763 14.9614C7.87673 15.1026 7.8608 15.258 7.89185 15.4078C7.92289 15.5577 7.99952 15.6954 8.11203 15.8035C8.22455 15.9116 8.36791 15.9852 8.52398 16.015C8.68004 16.0448 8.84181 16.0295 8.98882 15.971C9.13584 15.9125 9.26149 15.8135 9.3499 15.6864C9.4383 15.5593 9.48549 15.4099 9.48549 15.2571C9.48549 15.0522 9.40072 14.8556 9.24984 14.7107C9.09896 14.5658 8.89432 14.4844 8.68094 14.4844ZM15.9219 17.5753C15.4445 17.5753 14.9779 17.4393 14.5809 17.1846C14.184 16.9299 13.8746 16.5678 13.692 16.1442C13.5093 15.7206 13.4615 15.2545 13.5546 14.8048C13.6477 14.3552 13.8776 13.9421 14.2152 13.6179C14.5527 13.2937 14.9828 13.0729 15.451 12.9835C15.9192 12.894 16.4045 12.9399 16.8455 13.1154C17.2866 13.2909 17.6635 13.588 17.9288 13.9692C18.194 14.3504 18.3355 14.7986 18.3355 15.2571C18.3355 15.8719 18.0812 16.4615 17.6286 16.8963C17.1759 17.331 16.562 17.5753 15.9219 17.5753ZM15.9219 14.4844C15.7628 14.4844 15.6072 14.5297 15.4749 14.6146C15.3426 14.6995 15.2395 14.8202 15.1786 14.9614C15.1177 15.1026 15.1018 15.258 15.1328 15.4078C15.1638 15.5577 15.2405 15.6954 15.353 15.8035C15.4655 15.9116 15.6089 15.9852 15.7649 16.015C15.921 16.0448 16.0828 16.0295 16.2298 15.971C16.3768 15.9125 16.5024 15.8135 16.5908 15.6864C16.6793 15.5593 16.7264 15.4099 16.7264 15.2571C16.7264 15.0522 16.6417 14.8556 16.4908 14.7107C16.3399 14.5658 16.1353 14.4844 15.9219 14.4844Z" fill="#444444"/>
<path d="M14.3125 5.98447H9.48515C9.27177 5.98447 9.06713 5.90305 8.91625 5.75814C8.76537 5.61323 8.6806 5.41668 8.6806 5.21175C8.6806 5.00681 8.76537 4.81026 8.91625 4.66535C9.06713 4.52044 9.27177 4.43903 9.48515 4.43903H14.3125C14.5258 4.43903 14.7305 4.52044 14.8814 4.66535C15.0322 4.81026 15.117 5.00681 15.117 5.21175C15.117 5.41668 15.0322 5.61323 14.8814 5.75814C14.7305 5.90305 14.5258 5.98447 14.3125 5.98447Z" fill="#444444"/>
<path d="M11.9056 8.30218C11.6922 8.30218 11.4875 8.22077 11.3367 8.07586C11.1858 7.93095 11.101 7.7344 11.101 7.52946V2.89314C11.101 2.6882 11.1858 2.49166 11.3367 2.34675C11.4875 2.20183 11.6922 2.12042 11.9056 2.12042C12.1189 2.12042 12.3236 2.20183 12.4745 2.34675C12.6253 2.49166 12.7101 2.6882 12.7101 2.89314V7.52946C12.7101 7.7344 12.6253 7.93095 12.4745 8.07586C12.3236 8.22077 12.1189 8.30218 11.9056 8.30218Z" fill="#444444"/>
</svg>
