<svg width="11" height="11" viewBox="0 0 11 11" fill="none" xmlns="http://www.w3.org/2000/svg">
<path d="M5.03056 1.06452C5.28234 0.441929 6.16381 0.441929 6.4156 1.06452L7.29487 3.2387C7.40187 3.5033 7.65031 3.6838 7.93503 3.70381L10.2745 3.86818C10.9444 3.91525 11.2168 4.75358 10.7025 5.18543L8.90645 6.69352C8.68786 6.87706 8.59297 7.16912 8.66193 7.44608L9.22854 9.72185C9.39079 10.3735 8.67766 10.8917 8.10801 10.536L6.11872 9.29383C5.87662 9.14266 5.56954 9.14266 5.32743 9.29383L3.33814 10.536C2.76849 10.8917 2.05537 10.3735 2.21762 9.72185L2.78423 7.44608C2.85318 7.16912 2.75829 6.87706 2.53971 6.69352L0.743648 5.18543C0.229334 4.75358 0.501723 3.91525 1.17165 3.86818L3.51112 3.70381C3.79584 3.6838 4.04428 3.5033 4.15129 3.2387L5.03056 1.06452Z" fill="#FFAB00"/>
</svg>
